<svg width="92" height="84" viewBox="0 0 92 84" fill="none" xmlns="http://www.w3.org/2000/svg">
<path d="M0 60.766L12.4207 21.4468L6.21037 15.1915V3.57447L16.8567 0L25.7287 7.14894L46.1342 10.7234L65.6525 7.14894L74.5245 0L85.1708 3.57447V15.1915L78.9605 21.4468L92 60.766L63.8781 84H54.119L86.058 58.9787L71.8629 12.5106H19.5183L5.32318 58.9787L37.2622 84H27.5031L0 60.766Z" fill="#B6B6B6"/>
<path d="M23 41.1543L36.4311 44.0726V60.8527L34.6402 70.3371L47.1759 76.1736L58.8161 70.3371L57.0253 60.8527V44.0726L69.561 41.1543V45.5317L65.9794 48.45L59.7115 47.7204L57.0253 44.0726L57.9207 60.8527L60.6069 71.0667L47.1759 78.3624L32.8494 71.0667L35.5356 60.8527L36.4311 44.0726L33.7448 47.7204L26.5816 48.45L23 45.5317V41.1543Z" fill="#B6B6B6"/>
<path d="M43.2886 64.2686H50.2724L52.1707 69.6806L46.8415 73.2887L41.5122 69.6806L43.2886 64.2686Z" fill="#B6B6B6"/>
</svg>
