<svg width="301" height="273" viewBox="0 0 301 273" fill="none" xmlns="http://www.w3.org/2000/svg">
<path d="M0 197.489L40.6374 69.7021L20.3187 49.3723V11.617L55.1508 0L84.1776 23.234L150.939 34.8511L214.798 23.234L243.825 0L278.657 11.617V49.3723L258.338 69.7021L301 197.489L208.993 273H177.063L281.559 191.681L235.117 40.6596H63.8588L17.416 191.681L121.912 273H89.9829L0 197.489Z" fill="#C2C2C2"/>
<path d="M74 134L118.135 143.49V198.059L112.25 228.902L153.442 247.882L191.692 228.902L185.808 198.059V143.49L227 134V148.235L215.231 157.725L194.635 155.353L185.808 143.49L188.75 198.059L197.577 231.275L153.442 255L106.365 231.275L115.192 198.059L118.135 143.49L109.308 155.353L85.7692 157.725L74 148.235V134Z" fill="#C2C2C2"/>
<path d="M140.833 209H163.766L170 227L152.5 239L135 227L140.833 209Z" fill="#C2C2C2"/>
<line x1="90.3384" y1="107.397" x2="130.03" y2="121.844" stroke="#C1C1C1" stroke-width="4" stroke-linecap="round"/>
<line x1="173.909" y1="105.287" x2="210.488" y2="84.1679" stroke="#C1C1C1" stroke-width="4" stroke-linecap="round"/>
</svg>
