<svg width="92" height="84" viewBox="0 0 92 84" fill="none" xmlns="http://www.w3.org/2000/svg">
<path d="M0 60.766L12.4207 21.4468L6.21037 15.1915V3.57447L16.8567 0L25.7287 7.14894L46.1342 10.7234L65.6525 7.14894L74.5245 0L85.1708 3.57447V15.1915L78.9605 21.4468L92 60.766L63.8781 84H54.119L86.058 58.9787L71.8629 12.5106H19.5183L5.32318 58.9787L37.2622 84H27.5031L0 60.766Z" fill="white"/>
<path d="M23 41.1544L36.4311 44.0727V60.8528L34.6402 70.3372L47.1759 76.1738L58.8161 70.3372L57.0253 60.8528V44.0727L69.561 41.1544V45.5318L65.9794 48.4501L59.7115 47.7205L57.0253 44.0727L57.9207 60.8528L60.6069 71.0668L47.1759 78.3625L32.8494 71.0668L35.5356 60.8528L36.4311 44.0727L33.7448 47.7205L26.5816 48.4501L23 45.5318V41.1544Z" fill="white"/>
<path d="M43.2886 64.2684H50.2724L52.1707 69.6805L46.8415 73.2886L41.5122 69.6805L43.2886 64.2684Z" fill="white"/>
</svg>
