<svg width="92" height="88" viewBox="0 0 92 88" fill="none" xmlns="http://www.w3.org/2000/svg">
<path d="M0 60.4158L12.4104 21.3232L6.20521 15.1039V3.55387L16.8427 0L25.7073 7.10774L46.0959 10.6616L65.598 7.10774L74.4626 0L85.1001 3.55387V15.1039L78.8949 21.3232L91.9236 60.4158L63.8251 83.5159H54.074L85.9865 58.6388L71.8032 12.4385H19.5021L5.31876 58.6388L37.2313 83.5159H27.4802L0 60.4158Z" fill="#C2C2C2"/>
<path d="M21.2993 40.918L34.7192 43.8194V60.5028L32.9299 69.9326L45.4551 75.7355L57.0857 69.9326L55.2964 60.5028V43.8194L67.8216 40.918V45.2702L64.243 48.1716L57.9804 47.4463L55.2964 43.8194L56.191 60.5028L58.875 70.6579L45.4551 77.9116L31.1406 70.6579L33.8245 60.5028L34.7192 43.8194L32.0352 47.4463L24.878 48.1716L21.2993 45.2702V40.918Z" fill="#C2C2C2"/>
<path d="M42.1314 63.8984H49.1094L51.0061 69.2793L45.6813 72.8666L40.3564 69.2793L42.1314 63.8984Z" fill="#C2C2C2"/>
<path d="M27.4849 83.5156H63.829L58.0127 87.9997H32.8097L27.4849 83.5156Z" fill="#C1C1C1"/>
</svg>
